<mxfile host="app.diagrams.net" modified="2024-03-09T09:51:16.335Z" agent="Mozilla/5.0 (Windows NT 10.0; Win64; x64) AppleWebKit/537.36 (KHTML, like Gecko) Chrome/122.0.0.0 Safari/537.36" version="24.0.2" etag="NxixLJ3hluHhm-kn3g1F" type="github">
  <diagram name="第 1 页" id="c3dHhMDam8iShvv9Dxf0">
    <mxGraphModel>
      <root>
        <mxCell id="0" />
        <mxCell id="1" parent="0" />
      </root>
    </mxGraphModel>
  </diagram>
</mxfile>
